<svg width="771" height="455" viewBox="0 0 771 455" fill="none" xmlns="http://www.w3.org/2000/svg">
<rect x="0.5" y="146.5" width="146" height="81" fill="#D9D9D9" stroke="black"/>
<rect x="194.5" y="24.5" width="140" height="81" fill="#D9D9D9" stroke="black"/>
<rect x="453.5" y="0.5" width="140" height="81" fill="#D9D9D9" stroke="black"/>
<rect x="103.5" y="345.5" width="140" height="81" fill="#D9D9D9" stroke="black"/>
<rect x="382.5" y="373.5" width="140" height="81" fill="#D9D9D9" stroke="black"/>
<rect x="630.5" y="291.5" width="140" height="81" fill="#D9D9D9" stroke="black"/>
<path d="M205.114 74V56.5455H211.011C212.375 56.5455 213.494 56.7784 214.369 57.2443C215.244 57.7045 215.892 58.3381 216.312 59.1449C216.733 59.9517 216.943 60.8693 216.943 61.8977C216.943 62.9261 216.733 63.8381 216.312 64.6335C215.892 65.429 215.247 66.054 214.378 66.5085C213.509 66.9574 212.398 67.1818 211.045 67.1818H206.273V65.2727H210.977C211.909 65.2727 212.659 65.1364 213.227 64.8636C213.801 64.5909 214.216 64.2045 214.472 63.7045C214.733 63.1989 214.864 62.5966 214.864 61.8977C214.864 61.1989 214.733 60.5881 214.472 60.0653C214.21 59.5426 213.793 59.1392 213.219 58.8551C212.645 58.5653 211.886 58.4205 210.943 58.4205H207.227V74H205.114ZM213.33 66.1591L217.625 74H215.17L210.943 66.1591H213.33ZM225.54 74.2727C224.279 74.2727 223.191 73.9943 222.276 73.4375C221.367 72.875 220.665 72.0909 220.171 71.0852C219.683 70.0739 219.438 68.8977 219.438 67.5568C219.438 66.2159 219.683 65.0341 220.171 64.0114C220.665 62.983 221.353 62.1818 222.234 61.608C223.12 61.0284 224.154 60.7386 225.336 60.7386C226.018 60.7386 226.691 60.8523 227.356 61.0795C228.021 61.3068 228.626 61.6761 229.171 62.1875C229.717 62.6932 230.151 63.3636 230.475 64.1989C230.799 65.0341 230.961 66.0625 230.961 67.2841V68.1364H220.87V66.3977H228.915C228.915 65.6591 228.768 65 228.472 64.4205C228.183 63.8409 227.768 63.3835 227.228 63.0483C226.694 62.7131 226.063 62.5455 225.336 62.5455C224.535 62.5455 223.842 62.7443 223.256 63.142C222.677 63.5341 222.231 64.0455 221.918 64.6761C221.606 65.3068 221.45 65.983 221.45 66.7045V67.8636C221.45 68.8523 221.62 69.6903 221.961 70.3778C222.308 71.0597 222.788 71.5795 223.401 71.9375C224.015 72.2898 224.728 72.4659 225.54 72.4659C226.069 72.4659 226.546 72.392 226.972 72.2443C227.404 72.0909 227.776 71.8636 228.089 71.5625C228.401 71.2557 228.643 70.875 228.813 70.4205L230.756 70.9659C230.552 71.625 230.208 72.2045 229.725 72.7045C229.242 73.1989 228.646 73.5852 227.935 73.8636C227.225 74.1364 226.427 74.2727 225.54 74.2727ZM234.021 78.9091V60.9091H235.964V62.9886H236.202C236.35 62.7614 236.555 62.4716 236.816 62.1193C237.083 61.7614 237.464 61.4432 237.958 61.1648C238.458 60.8807 239.134 60.7386 239.987 60.7386C241.089 60.7386 242.06 61.0142 242.901 61.5653C243.742 62.1165 244.398 62.8977 244.87 63.9091C245.342 64.9205 245.577 66.1136 245.577 67.4886C245.577 68.875 245.342 70.0767 244.87 71.0938C244.398 72.1051 243.745 72.8892 242.91 73.446C242.075 73.9972 241.112 74.2727 240.021 74.2727C239.18 74.2727 238.506 74.1335 238.001 73.8551C237.495 73.571 237.106 73.25 236.833 72.892C236.56 72.5284 236.35 72.2273 236.202 71.9886H236.032V78.9091H234.021ZM235.998 67.4545C235.998 68.4432 236.143 69.3153 236.433 70.071C236.722 70.821 237.146 71.4091 237.702 71.8352C238.259 72.2557 238.941 72.4659 239.748 72.4659C240.589 72.4659 241.29 72.2443 241.853 71.8011C242.421 71.3523 242.847 70.75 243.131 69.9943C243.421 69.233 243.566 68.3864 243.566 67.4545C243.566 66.5341 243.424 65.7045 243.14 64.9659C242.862 64.2216 242.438 63.6335 241.87 63.2017C241.308 62.7642 240.6 62.5455 239.748 62.5455C238.93 62.5455 238.242 62.7528 237.685 63.1676C237.129 63.5767 236.708 64.1506 236.424 64.8892C236.14 65.6222 235.998 66.4773 235.998 67.4545ZM253.964 74.2727C252.782 74.2727 251.745 73.9915 250.853 73.429C249.967 72.8665 249.273 72.0795 248.773 71.0682C248.279 70.0568 248.032 68.875 248.032 67.5227C248.032 66.1591 248.279 64.9687 248.773 63.9517C249.273 62.9347 249.967 62.1449 250.853 61.5824C251.745 61.0199 252.782 60.7386 253.964 60.7386C255.146 60.7386 256.18 61.0199 257.066 61.5824C257.958 62.1449 258.651 62.9347 259.146 63.9517C259.646 64.9687 259.896 66.1591 259.896 67.5227C259.896 68.875 259.646 70.0568 259.146 71.0682C258.651 72.0795 257.958 72.8665 257.066 73.429C256.18 73.9915 255.146 74.2727 253.964 74.2727ZM253.964 72.4659C254.862 72.4659 255.6 72.2358 256.18 71.7756C256.759 71.3153 257.188 70.7102 257.467 69.9602C257.745 69.2102 257.884 68.3977 257.884 67.5227C257.884 66.6477 257.745 65.8324 257.467 65.0767C257.188 64.321 256.759 63.7102 256.18 63.2443C255.6 62.7784 254.862 62.5455 253.964 62.5455C253.066 62.5455 252.327 62.7784 251.748 63.2443C251.168 63.7102 250.739 64.321 250.461 65.0767C250.183 65.8324 250.043 66.6477 250.043 67.5227C250.043 68.3977 250.183 69.2102 250.461 69.9602C250.739 70.7102 251.168 71.3153 251.748 71.7756C252.327 72.2358 253.066 72.4659 253.964 72.4659ZM272.239 63.8409L270.432 64.3523C270.318 64.0511 270.151 63.7585 269.929 63.4744C269.713 63.1847 269.418 62.946 269.043 62.7585C268.668 62.571 268.188 62.4773 267.602 62.4773C266.801 62.4773 266.134 62.6619 265.599 63.0312C265.071 63.3949 264.807 63.858 264.807 64.4205C264.807 64.9205 264.989 65.3153 265.352 65.6051C265.716 65.8949 266.284 66.1364 267.057 66.3295L269 66.8068C270.17 67.0909 271.043 67.5256 271.616 68.1108C272.19 68.6903 272.477 69.4375 272.477 70.3523C272.477 71.1023 272.261 71.7727 271.83 72.3636C271.403 72.9545 270.807 73.4205 270.04 73.7614C269.273 74.1023 268.381 74.2727 267.364 74.2727C266.028 74.2727 264.923 73.983 264.048 73.4034C263.173 72.8239 262.619 71.9773 262.386 70.8636L264.295 70.3864C264.477 71.0909 264.821 71.6193 265.327 71.9716C265.838 72.3239 266.506 72.5 267.33 72.5C268.267 72.5 269.011 72.3011 269.562 71.9034C270.119 71.5 270.398 71.017 270.398 70.4545C270.398 70 270.239 69.6193 269.92 69.3125C269.602 69 269.114 68.767 268.455 68.6136L266.273 68.1023C265.074 67.8182 264.193 67.3778 263.631 66.7812C263.074 66.179 262.795 65.4261 262.795 64.5227C262.795 63.7841 263.003 63.1307 263.418 62.5625C263.838 61.9943 264.409 61.5483 265.131 61.2244C265.858 60.9006 266.682 60.7386 267.602 60.7386C268.898 60.7386 269.915 61.0227 270.653 61.5909C271.398 62.1591 271.926 62.9091 272.239 63.8409ZM275.505 74V60.9091H277.516V74H275.505ZM276.528 58.7273C276.136 58.7273 275.798 58.5938 275.513 58.3267C275.235 58.0597 275.096 57.7386 275.096 57.3636C275.096 56.9886 275.235 56.6676 275.513 56.4006C275.798 56.1335 276.136 56 276.528 56C276.92 56 277.255 56.1335 277.533 56.4006C277.817 56.6676 277.96 56.9886 277.96 57.3636C277.96 57.7386 277.817 58.0597 277.533 58.3267C277.255 58.5938 276.92 58.7273 276.528 58.7273ZM286.893 60.9091V62.6136H280.109V60.9091H286.893ZM282.087 57.7727H284.098V70.25C284.098 70.8182 284.18 71.2443 284.345 71.5284C284.516 71.8068 284.732 71.9943 284.993 72.0909C285.26 72.1818 285.541 72.2273 285.837 72.2273C286.058 72.2273 286.24 72.2159 286.382 72.1932C286.524 72.1648 286.638 72.142 286.723 72.125L287.132 73.9318C286.996 73.983 286.805 74.0341 286.561 74.0852C286.317 74.142 286.007 74.1705 285.632 74.1705C285.064 74.1705 284.507 74.0483 283.962 73.804C283.422 73.5597 282.973 73.1875 282.615 72.6875C282.263 72.1875 282.087 71.5568 282.087 70.7955V57.7727ZM295.097 74.2727C293.915 74.2727 292.878 73.9915 291.986 73.429C291.099 72.8665 290.406 72.0795 289.906 71.0682C289.412 70.0568 289.165 68.875 289.165 67.5227C289.165 66.1591 289.412 64.9687 289.906 63.9517C290.406 62.9347 291.099 62.1449 291.986 61.5824C292.878 61.0199 293.915 60.7386 295.097 60.7386C296.278 60.7386 297.313 61.0199 298.199 61.5824C299.091 62.1449 299.784 62.9347 300.278 63.9517C300.778 64.9687 301.028 66.1591 301.028 67.5227C301.028 68.875 300.778 70.0568 300.278 71.0682C299.784 72.0795 299.091 72.8665 298.199 73.429C297.313 73.9915 296.278 74.2727 295.097 74.2727ZM295.097 72.4659C295.994 72.4659 296.733 72.2358 297.312 71.7756C297.892 71.3153 298.321 70.7102 298.599 69.9602C298.878 69.2102 299.017 68.3977 299.017 67.5227C299.017 66.6477 298.878 65.8324 298.599 65.0767C298.321 64.321 297.892 63.7102 297.312 63.2443C296.733 62.7784 295.994 62.5455 295.097 62.5455C294.199 62.5455 293.46 62.7784 292.881 63.2443C292.301 63.7102 291.872 64.321 291.594 65.0767C291.315 65.8324 291.176 66.6477 291.176 67.5227C291.176 68.3977 291.315 69.2102 291.594 69.9602C291.872 70.7102 292.301 71.3153 292.881 71.7756C293.46 72.2358 294.199 72.4659 295.097 72.4659ZM304.099 74V60.9091H306.042V62.8864H306.178C306.417 62.2386 306.849 61.7131 307.474 61.3097C308.099 60.9062 308.803 60.7045 309.587 60.7045C309.735 60.7045 309.92 60.7074 310.141 60.7131C310.363 60.7187 310.531 60.7273 310.644 60.7386V62.7841C310.576 62.767 310.42 62.7415 310.175 62.7074C309.937 62.6676 309.684 62.6477 309.417 62.6477C308.781 62.6477 308.212 62.7812 307.712 63.0483C307.218 63.3097 306.826 63.6733 306.536 64.1392C306.252 64.5994 306.11 65.125 306.11 65.7159V74H304.099ZM314.722 78.9091C314.381 78.9091 314.077 78.8807 313.81 78.8239C313.543 78.7727 313.359 78.7216 313.256 78.6705L313.768 76.8977C314.256 77.0227 314.688 77.0682 315.063 77.0341C315.438 77 315.771 76.8324 316.06 76.5312C316.356 76.2358 316.626 75.7557 316.87 75.0909L317.245 74.0682L312.404 60.9091H314.586L318.2 71.3409H318.336L321.95 60.9091H324.131L318.575 75.9091C318.325 76.5852 318.015 77.1449 317.646 77.5881C317.276 78.0369 316.847 78.3693 316.359 78.5852C315.876 78.8011 315.33 78.9091 314.722 78.9091Z" fill="black"/>
<path d="M490.114 32.5455H492.636L498.568 47.0341H498.773L504.705 32.5455H507.227V50H505.25V36.7386H505.08L499.625 50H497.716L492.261 36.7386H492.091V50H490.114V32.5455ZM516.511 50.2727C515.329 50.2727 514.292 49.9915 513.4 49.429C512.513 48.8665 511.82 48.0795 511.32 47.0682C510.826 46.0568 510.579 44.875 510.579 43.5227C510.579 42.1591 510.826 40.9687 511.32 39.9517C511.82 38.9347 512.513 38.1449 513.4 37.5824C514.292 37.0199 515.329 36.7386 516.511 36.7386C517.692 36.7386 518.727 37.0199 519.613 37.5824C520.505 38.1449 521.198 38.9347 521.692 39.9517C522.192 40.9687 522.442 42.1591 522.442 43.5227C522.442 44.875 522.192 46.0568 521.692 47.0682C521.198 48.0795 520.505 48.8665 519.613 49.429C518.727 49.9915 517.692 50.2727 516.511 50.2727ZM516.511 48.4659C517.408 48.4659 518.147 48.2358 518.727 47.7756C519.306 47.3153 519.735 46.7102 520.013 45.9602C520.292 45.2102 520.431 44.3977 520.431 43.5227C520.431 42.6477 520.292 41.8324 520.013 41.0767C519.735 40.321 519.306 39.7102 518.727 39.2443C518.147 38.7784 517.408 38.5455 516.511 38.5455C515.613 38.5455 514.874 38.7784 514.295 39.2443C513.715 39.7102 513.286 40.321 513.008 41.0767C512.729 41.8324 512.59 42.6477 512.59 43.5227C512.59 44.3977 512.729 45.2102 513.008 45.9602C513.286 46.7102 513.715 47.3153 514.295 47.7756C514.874 48.2358 515.613 48.4659 516.511 48.4659ZM530.456 50.2727C529.365 50.2727 528.402 49.9972 527.567 49.446C526.732 48.8892 526.078 48.1051 525.607 47.0938C525.135 46.0767 524.899 44.875 524.899 43.4886C524.899 42.1136 525.135 40.9205 525.607 39.9091C526.078 38.8977 526.734 38.1165 527.575 37.5653C528.416 37.0142 529.388 36.7386 530.49 36.7386C531.342 36.7386 532.016 36.8807 532.51 37.1648C533.01 37.4432 533.391 37.7614 533.652 38.1193C533.919 38.4716 534.126 38.7614 534.274 38.9886H534.445V32.5455H536.456V50H534.513V47.9886H534.274C534.126 48.2273 533.916 48.5284 533.643 48.892C533.371 49.25 532.982 49.571 532.476 49.8551C531.97 50.1335 531.297 50.2727 530.456 50.2727ZM530.729 48.4659C531.536 48.4659 532.217 48.2557 532.774 47.8352C533.331 47.4091 533.754 46.821 534.044 46.071C534.334 45.3153 534.479 44.4432 534.479 43.4545C534.479 42.4773 534.337 41.6222 534.053 40.8892C533.768 40.1506 533.348 39.5767 532.791 39.1676C532.234 38.7528 531.547 38.5455 530.729 38.5455C529.876 38.5455 529.166 38.7642 528.598 39.2017C528.036 39.6335 527.612 40.2216 527.328 40.9659C527.05 41.7045 526.911 42.5341 526.911 43.4545C526.911 44.3864 527.053 45.233 527.337 45.9943C527.626 46.75 528.053 47.3523 528.615 47.8011C529.183 48.2443 529.888 48.4659 530.729 48.4659ZM545.908 50.2727C544.646 50.2727 543.558 49.9943 542.643 49.4375C541.734 48.875 541.033 48.0909 540.538 47.0852C540.05 46.0739 539.805 44.8977 539.805 43.5568C539.805 42.2159 540.05 41.0341 540.538 40.0114C541.033 38.983 541.72 38.1818 542.601 37.608C543.487 37.0284 544.521 36.7386 545.703 36.7386C546.385 36.7386 547.058 36.8523 547.723 37.0795C548.388 37.3068 548.993 37.6761 549.538 38.1875C550.084 38.6932 550.518 39.3636 550.842 40.1989C551.166 41.0341 551.328 42.0625 551.328 43.2841V44.1364H541.237V42.3977H549.283C549.283 41.6591 549.135 41 548.839 40.4205C548.55 39.8409 548.135 39.3835 547.595 39.0483C547.061 38.7131 546.43 38.5455 545.703 38.5455C544.902 38.5455 544.209 38.7443 543.624 39.142C543.044 39.5341 542.598 40.0455 542.286 40.6761C541.973 41.3068 541.817 41.983 541.817 42.7045V43.8636C541.817 44.8523 541.987 45.6903 542.328 46.3778C542.675 47.0597 543.155 47.5795 543.768 47.9375C544.382 48.2898 545.095 48.4659 545.908 48.4659C546.436 48.4659 546.913 48.392 547.339 48.2443C547.771 48.0909 548.143 47.8636 548.456 47.5625C548.768 47.2557 549.01 46.875 549.18 46.4205L551.124 46.9659C550.919 47.625 550.575 48.2045 550.092 48.7045C549.609 49.1989 549.013 49.5852 548.303 49.8636C547.592 50.1364 546.794 50.2727 545.908 50.2727ZM556.399 32.5455V50H554.388V32.5455H556.399Z" fill="black"/>
<path d="M10.8409 196V182.909H12.8523V196H10.8409ZM11.8636 180.727C11.4716 180.727 11.1335 180.594 10.8494 180.327C10.571 180.06 10.4318 179.739 10.4318 179.364C10.4318 178.989 10.571 178.668 10.8494 178.401C11.1335 178.134 11.4716 178 11.8636 178C12.2557 178 12.5909 178.134 12.8693 178.401C13.1534 178.668 13.2955 178.989 13.2955 179.364C13.2955 179.739 13.1534 180.06 12.8693 180.327C12.5909 180.594 12.2557 180.727 11.8636 180.727ZM16.8089 196V178.545H22.7067C24.0703 178.545 25.1896 178.778 26.0646 179.244C26.9396 179.705 27.5874 180.338 28.0078 181.145C28.4283 181.952 28.6385 182.869 28.6385 183.898C28.6385 184.926 28.4283 185.838 28.0078 186.634C27.5874 187.429 26.9425 188.054 26.0732 188.509C25.2038 188.957 24.093 189.182 22.7408 189.182H17.968V187.273H22.6726C23.6044 187.273 24.3544 187.136 24.9226 186.864C25.4964 186.591 25.9112 186.205 26.1669 185.705C26.4283 185.199 26.5589 184.597 26.5589 183.898C26.5589 183.199 26.4283 182.588 26.1669 182.065C25.9055 181.543 25.4879 181.139 24.9141 180.855C24.3402 180.565 23.5817 180.42 22.6385 180.42H18.9226V196H16.8089ZM25.0249 188.159L29.3203 196H26.8658L22.6385 188.159H25.0249ZM37.2358 196.273C35.9744 196.273 34.8864 195.994 33.9716 195.438C33.0625 194.875 32.3608 194.091 31.8665 193.085C31.3778 192.074 31.1335 190.898 31.1335 189.557C31.1335 188.216 31.3778 187.034 31.8665 186.011C32.3608 184.983 33.0483 184.182 33.929 183.608C34.8153 183.028 35.8494 182.739 37.0312 182.739C37.7131 182.739 38.3864 182.852 39.0511 183.08C39.7159 183.307 40.321 183.676 40.8665 184.188C41.4119 184.693 41.8466 185.364 42.1705 186.199C42.4943 187.034 42.6562 188.062 42.6562 189.284V190.136H32.5653V188.398H40.6108C40.6108 187.659 40.4631 187 40.1676 186.42C39.8778 185.841 39.4631 185.384 38.9233 185.048C38.3892 184.713 37.7585 184.545 37.0312 184.545C36.2301 184.545 35.5369 184.744 34.9517 185.142C34.3722 185.534 33.9261 186.045 33.6136 186.676C33.3011 187.307 33.1449 187.983 33.1449 188.705V189.864C33.1449 190.852 33.3153 191.69 33.6562 192.378C34.0028 193.06 34.483 193.58 35.0966 193.938C35.7102 194.29 36.4233 194.466 37.2358 194.466C37.7642 194.466 38.2415 194.392 38.6676 194.244C39.0994 194.091 39.4716 193.864 39.7841 193.562C40.0966 193.256 40.3381 192.875 40.5085 192.42L42.4517 192.966C42.2472 193.625 41.9034 194.205 41.4205 194.705C40.9375 195.199 40.3409 195.585 39.6307 195.864C38.9205 196.136 38.1222 196.273 37.2358 196.273ZM45.7159 200.909V182.909H47.6591V184.989H47.8977C48.0455 184.761 48.25 184.472 48.5114 184.119C48.7784 183.761 49.1591 183.443 49.6534 183.165C50.1534 182.881 50.8295 182.739 51.6818 182.739C52.7841 182.739 53.7557 183.014 54.5966 183.565C55.4375 184.116 56.0938 184.898 56.5653 185.909C57.0369 186.92 57.2727 188.114 57.2727 189.489C57.2727 190.875 57.0369 192.077 56.5653 193.094C56.0938 194.105 55.4403 194.889 54.6051 195.446C53.7699 195.997 52.8068 196.273 51.7159 196.273C50.875 196.273 50.2017 196.134 49.696 195.855C49.1903 195.571 48.8011 195.25 48.5284 194.892C48.2557 194.528 48.0455 194.227 47.8977 193.989H47.7273V200.909H45.7159ZM47.6932 189.455C47.6932 190.443 47.8381 191.315 48.1278 192.071C48.4176 192.821 48.8409 193.409 49.3977 193.835C49.9545 194.256 50.6364 194.466 51.4432 194.466C52.2841 194.466 52.9858 194.244 53.5483 193.801C54.1165 193.352 54.5426 192.75 54.8267 191.994C55.1165 191.233 55.2614 190.386 55.2614 189.455C55.2614 188.534 55.1193 187.705 54.8352 186.966C54.5568 186.222 54.1335 185.634 53.5653 185.202C53.0028 184.764 52.2955 184.545 51.4432 184.545C50.625 184.545 49.9375 184.753 49.3807 185.168C48.8239 185.577 48.4034 186.151 48.1193 186.889C47.8352 187.622 47.6932 188.477 47.6932 189.455ZM65.6591 196.273C64.4773 196.273 63.4403 195.991 62.5483 195.429C61.6619 194.866 60.9688 194.08 60.4688 193.068C59.9744 192.057 59.7273 190.875 59.7273 189.523C59.7273 188.159 59.9744 186.969 60.4688 185.952C60.9688 184.935 61.6619 184.145 62.5483 183.582C63.4403 183.02 64.4773 182.739 65.6591 182.739C66.8409 182.739 67.875 183.02 68.7614 183.582C69.6534 184.145 70.3466 184.935 70.8409 185.952C71.3409 186.969 71.5909 188.159 71.5909 189.523C71.5909 190.875 71.3409 192.057 70.8409 193.068C70.3466 194.08 69.6534 194.866 68.7614 195.429C67.875 195.991 66.8409 196.273 65.6591 196.273ZM65.6591 194.466C66.5568 194.466 67.2955 194.236 67.875 193.776C68.4545 193.315 68.8835 192.71 69.1619 191.96C69.4403 191.21 69.5795 190.398 69.5795 189.523C69.5795 188.648 69.4403 187.832 69.1619 187.077C68.8835 186.321 68.4545 185.71 67.875 185.244C67.2955 184.778 66.5568 184.545 65.6591 184.545C64.7614 184.545 64.0227 184.778 63.4432 185.244C62.8636 185.71 62.4347 186.321 62.1562 187.077C61.8778 187.832 61.7386 188.648 61.7386 189.523C61.7386 190.398 61.8778 191.21 62.1562 191.96C62.4347 192.71 62.8636 193.315 63.4432 193.776C64.0227 194.236 64.7614 194.466 65.6591 194.466ZM83.9339 185.841L82.1271 186.352C82.0135 186.051 81.8459 185.759 81.6243 185.474C81.4084 185.185 81.1129 184.946 80.7379 184.759C80.3629 184.571 79.8828 184.477 79.2976 184.477C78.4964 184.477 77.8288 184.662 77.2947 185.031C76.7663 185.395 76.5021 185.858 76.5021 186.42C76.5021 186.92 76.6839 187.315 77.0476 187.605C77.4112 187.895 77.9794 188.136 78.7521 188.33L80.6953 188.807C81.8658 189.091 82.7379 189.526 83.3118 190.111C83.8857 190.69 84.1726 191.437 84.1726 192.352C84.1726 193.102 83.9567 193.773 83.5249 194.364C83.0987 194.955 82.5021 195.42 81.7351 195.761C80.968 196.102 80.076 196.273 79.0589 196.273C77.7237 196.273 76.6186 195.983 75.7436 195.403C74.8686 194.824 74.3146 193.977 74.0817 192.864L75.9908 192.386C76.1726 193.091 76.5163 193.619 77.022 193.972C77.5334 194.324 78.201 194.5 79.0249 194.5C79.9624 194.5 80.7067 194.301 81.2578 193.903C81.8146 193.5 82.093 193.017 82.093 192.455C82.093 192 81.9339 191.619 81.6158 191.312C81.2976 191 80.8089 190.767 80.1499 190.614L77.968 190.102C76.7692 189.818 75.8885 189.378 75.326 188.781C74.7692 188.179 74.4908 187.426 74.4908 186.523C74.4908 185.784 74.6982 185.131 75.1129 184.562C75.5334 183.994 76.1044 183.548 76.826 183.224C77.5533 182.901 78.3771 182.739 79.2976 182.739C80.593 182.739 81.6101 183.023 82.3487 183.591C83.093 184.159 83.6214 184.909 83.9339 185.841ZM87.2003 196V182.909H89.2116V196H87.2003ZM88.223 180.727C87.831 180.727 87.4929 180.594 87.2088 180.327C86.9304 180.06 86.7912 179.739 86.7912 179.364C86.7912 178.989 86.9304 178.668 87.2088 178.401C87.4929 178.134 87.831 178 88.223 178C88.6151 178 88.9503 178.134 89.2287 178.401C89.5128 178.668 89.6548 178.989 89.6548 179.364C89.6548 179.739 89.5128 180.06 89.2287 180.327C88.9503 180.594 88.6151 180.727 88.223 180.727ZM98.5888 182.909V184.614H91.8047V182.909H98.5888ZM93.782 179.773H95.7933V192.25C95.7933 192.818 95.8757 193.244 96.0405 193.528C96.2109 193.807 96.4268 193.994 96.6882 194.091C96.9553 194.182 97.2365 194.227 97.532 194.227C97.7536 194.227 97.9354 194.216 98.0774 194.193C98.2195 194.165 98.3331 194.142 98.4183 194.125L98.8274 195.932C98.6911 195.983 98.5007 196.034 98.2564 196.085C98.0121 196.142 97.7024 196.17 97.3274 196.17C96.7592 196.17 96.2024 196.048 95.657 195.804C95.1172 195.56 94.6683 195.188 94.3104 194.688C93.9581 194.188 93.782 193.557 93.782 192.795V179.773ZM106.792 196.273C105.61 196.273 104.573 195.991 103.681 195.429C102.795 194.866 102.102 194.08 101.602 193.068C101.107 192.057 100.86 190.875 100.86 189.523C100.86 188.159 101.107 186.969 101.602 185.952C102.102 184.935 102.795 184.145 103.681 183.582C104.573 183.02 105.61 182.739 106.792 182.739C107.974 182.739 109.008 183.02 109.894 183.582C110.786 184.145 111.479 184.935 111.974 185.952C112.474 186.969 112.724 188.159 112.724 189.523C112.724 190.875 112.474 192.057 111.974 193.068C111.479 194.08 110.786 194.866 109.894 195.429C109.008 195.991 107.974 196.273 106.792 196.273ZM106.792 194.466C107.69 194.466 108.428 194.236 109.008 193.776C109.587 193.315 110.016 192.71 110.295 191.96C110.573 191.21 110.712 190.398 110.712 189.523C110.712 188.648 110.573 187.832 110.295 187.077C110.016 186.321 109.587 185.71 109.008 185.244C108.428 184.778 107.69 184.545 106.792 184.545C105.894 184.545 105.156 184.778 104.576 185.244C103.996 185.71 103.567 186.321 103.289 187.077C103.011 187.832 102.871 188.648 102.871 189.523C102.871 190.398 103.011 191.21 103.289 191.96C103.567 192.71 103.996 193.315 104.576 193.776C105.156 194.236 105.894 194.466 106.792 194.466ZM115.794 196V182.909H117.737V184.886H117.874C118.112 184.239 118.544 183.713 119.169 183.31C119.794 182.906 120.499 182.705 121.283 182.705C121.43 182.705 121.615 182.707 121.837 182.713C122.058 182.719 122.226 182.727 122.339 182.739V184.784C122.271 184.767 122.115 184.741 121.871 184.707C121.632 184.668 121.379 184.648 121.112 184.648C120.476 184.648 119.908 184.781 119.408 185.048C118.913 185.31 118.521 185.673 118.232 186.139C117.947 186.599 117.805 187.125 117.805 187.716V196H115.794ZM126.418 200.909C126.077 200.909 125.773 200.881 125.506 200.824C125.239 200.773 125.054 200.722 124.952 200.67L125.463 198.898C125.952 199.023 126.384 199.068 126.759 199.034C127.134 199 127.466 198.832 127.756 198.531C128.051 198.236 128.321 197.756 128.565 197.091L128.94 196.068L124.099 182.909H126.281L129.895 193.341H130.031L133.645 182.909H135.827L130.27 197.909C130.02 198.585 129.71 199.145 129.341 199.588C128.972 200.037 128.543 200.369 128.054 200.585C127.571 200.801 127.026 200.909 126.418 200.909Z" fill="black"/>
<path d="M133.159 382H131.045C130.92 381.392 130.702 380.858 130.389 380.398C130.082 379.938 129.707 379.551 129.264 379.239C128.827 378.92 128.341 378.682 127.807 378.523C127.273 378.364 126.716 378.284 126.136 378.284C125.08 378.284 124.122 378.551 123.264 379.085C122.412 379.619 121.733 380.406 121.227 381.446C120.727 382.486 120.477 383.761 120.477 385.273C120.477 386.784 120.727 388.06 121.227 389.099C121.733 390.139 122.412 390.926 123.264 391.46C124.122 391.994 125.08 392.261 126.136 392.261C126.716 392.261 127.273 392.182 127.807 392.023C128.341 391.864 128.827 391.628 129.264 391.315C129.707 390.997 130.082 390.608 130.389 390.148C130.702 389.682 130.92 389.148 131.045 388.545H133.159C133 389.437 132.71 390.236 132.29 390.94C131.869 391.645 131.347 392.244 130.722 392.739C130.097 393.227 129.395 393.599 128.616 393.855C127.844 394.111 127.017 394.239 126.136 394.239C124.648 394.239 123.324 393.875 122.165 393.148C121.006 392.42 120.094 391.386 119.429 390.045C118.764 388.705 118.432 387.114 118.432 385.273C118.432 383.432 118.764 381.841 119.429 380.5C120.094 379.159 121.006 378.125 122.165 377.398C123.324 376.67 124.648 376.307 126.136 376.307C127.017 376.307 127.844 376.435 128.616 376.69C129.395 376.946 130.097 377.321 130.722 377.815C131.347 378.304 131.869 378.901 132.29 379.605C132.71 380.304 133 381.102 133.159 382ZM141.62 394.273C140.438 394.273 139.401 393.991 138.509 393.429C137.623 392.866 136.93 392.08 136.43 391.068C135.935 390.057 135.688 388.875 135.688 387.523C135.688 386.159 135.935 384.969 136.43 383.952C136.93 382.935 137.623 382.145 138.509 381.582C139.401 381.02 140.438 380.739 141.62 380.739C142.802 380.739 143.836 381.02 144.722 381.582C145.614 382.145 146.308 382.935 146.802 383.952C147.302 384.969 147.552 386.159 147.552 387.523C147.552 388.875 147.302 390.057 146.802 391.068C146.308 392.08 145.614 392.866 144.722 393.429C143.836 393.991 142.802 394.273 141.62 394.273ZM141.62 392.466C142.518 392.466 143.256 392.236 143.836 391.776C144.415 391.315 144.844 390.71 145.123 389.96C145.401 389.21 145.54 388.398 145.54 387.523C145.54 386.648 145.401 385.832 145.123 385.077C144.844 384.321 144.415 383.71 143.836 383.244C143.256 382.778 142.518 382.545 141.62 382.545C140.722 382.545 139.984 382.778 139.404 383.244C138.825 383.71 138.396 384.321 138.117 385.077C137.839 385.832 137.7 386.648 137.7 387.523C137.7 388.398 137.839 389.21 138.117 389.96C138.396 390.71 138.825 391.315 139.404 391.776C139.984 392.236 140.722 392.466 141.62 392.466ZM152.634 386.125V394H150.622V380.909H152.565V382.955H152.736C153.043 382.29 153.509 381.756 154.134 381.352C154.759 380.943 155.565 380.739 156.554 380.739C157.44 380.739 158.216 380.92 158.881 381.284C159.545 381.642 160.063 382.188 160.432 382.92C160.801 383.648 160.986 384.568 160.986 385.682V394H158.974V385.818C158.974 384.79 158.707 383.989 158.173 383.415C157.639 382.835 156.906 382.545 155.974 382.545C155.332 382.545 154.759 382.685 154.253 382.963C153.753 383.241 153.358 383.648 153.068 384.182C152.778 384.716 152.634 385.364 152.634 386.125ZM170.354 380.909V382.614H163.57V380.909H170.354ZM165.548 377.773H167.559V390.25C167.559 390.818 167.641 391.244 167.806 391.528C167.977 391.807 168.192 391.994 168.454 392.091C168.721 392.182 169.002 392.227 169.298 392.227C169.519 392.227 169.701 392.216 169.843 392.193C169.985 392.165 170.099 392.142 170.184 392.125L170.593 393.932C170.457 393.983 170.266 394.034 170.022 394.085C169.778 394.142 169.468 394.17 169.093 394.17C168.525 394.17 167.968 394.048 167.423 393.804C166.883 393.56 166.434 393.188 166.076 392.688C165.724 392.188 165.548 391.557 165.548 390.795V377.773ZM173.38 394V380.909H175.323V382.886H175.46C175.698 382.239 176.13 381.713 176.755 381.31C177.38 380.906 178.085 380.705 178.869 380.705C179.016 380.705 179.201 380.707 179.423 380.713C179.644 380.719 179.812 380.727 179.925 380.739V382.784C179.857 382.767 179.701 382.741 179.457 382.707C179.218 382.668 178.965 382.648 178.698 382.648C178.062 382.648 177.494 382.781 176.994 383.048C176.499 383.31 176.107 383.673 175.817 384.139C175.533 384.599 175.391 385.125 175.391 385.716V394H173.38ZM187.229 394.273C186.048 394.273 185.011 393.991 184.119 393.429C183.232 392.866 182.539 392.08 182.039 391.068C181.545 390.057 181.298 388.875 181.298 387.523C181.298 386.159 181.545 384.969 182.039 383.952C182.539 382.935 183.232 382.145 184.119 381.582C185.011 381.02 186.048 380.739 187.229 380.739C188.411 380.739 189.445 381.02 190.332 381.582C191.224 382.145 191.917 382.935 192.411 383.952C192.911 384.969 193.161 386.159 193.161 387.523C193.161 388.875 192.911 390.057 192.411 391.068C191.917 392.08 191.224 392.866 190.332 393.429C189.445 393.991 188.411 394.273 187.229 394.273ZM187.229 392.466C188.127 392.466 188.866 392.236 189.445 391.776C190.025 391.315 190.454 390.71 190.732 389.96C191.011 389.21 191.15 388.398 191.15 387.523C191.15 386.648 191.011 385.832 190.732 385.077C190.454 384.321 190.025 383.71 189.445 383.244C188.866 382.778 188.127 382.545 187.229 382.545C186.332 382.545 185.593 382.778 185.013 383.244C184.434 383.71 184.005 384.321 183.727 385.077C183.448 385.832 183.309 386.648 183.309 387.523C183.309 388.398 183.448 389.21 183.727 389.96C184.005 390.71 184.434 391.315 185.013 391.776C185.593 392.236 186.332 392.466 187.229 392.466ZM198.243 376.545V394H196.232V376.545H198.243ZM203.938 376.545V394H201.927V376.545H203.938ZM213.111 394.273C211.849 394.273 210.761 393.994 209.847 393.438C208.938 392.875 208.236 392.091 207.741 391.085C207.253 390.074 207.009 388.898 207.009 387.557C207.009 386.216 207.253 385.034 207.741 384.011C208.236 382.983 208.923 382.182 209.804 381.608C210.69 381.028 211.724 380.739 212.906 380.739C213.588 380.739 214.261 380.852 214.926 381.08C215.591 381.307 216.196 381.676 216.741 382.188C217.287 382.693 217.722 383.364 218.045 384.199C218.369 385.034 218.531 386.062 218.531 387.284V388.136H208.44V386.398H216.486C216.486 385.659 216.338 385 216.043 384.42C215.753 383.841 215.338 383.384 214.798 383.048C214.264 382.713 213.634 382.545 212.906 382.545C212.105 382.545 211.412 382.744 210.827 383.142C210.247 383.534 209.801 384.045 209.489 384.676C209.176 385.307 209.02 385.983 209.02 386.705V387.864C209.02 388.852 209.19 389.69 209.531 390.378C209.878 391.06 210.358 391.58 210.972 391.938C211.585 392.29 212.298 392.466 213.111 392.466C213.639 392.466 214.116 392.392 214.543 392.244C214.974 392.091 215.347 391.864 215.659 391.562C215.972 391.256 216.213 390.875 216.384 390.42L218.327 390.966C218.122 391.625 217.778 392.205 217.295 392.705C216.813 393.199 216.216 393.585 215.506 393.864C214.795 394.136 213.997 394.273 213.111 394.273ZM221.591 394V380.909H223.534V382.886H223.67C223.909 382.239 224.341 381.713 224.966 381.31C225.591 380.906 226.295 380.705 227.08 380.705C227.227 380.705 227.412 380.707 227.634 380.713C227.855 380.719 228.023 380.727 228.136 380.739V382.784C228.068 382.767 227.912 382.741 227.668 382.707C227.429 382.668 227.176 382.648 226.909 382.648C226.273 382.648 225.705 382.781 225.205 383.048C224.71 383.31 224.318 383.673 224.028 384.139C223.744 384.599 223.602 385.125 223.602 385.716V394H221.591Z" fill="black"/>
<path d="M421.659 407.909C421.557 407.045 421.142 406.375 420.415 405.898C419.688 405.42 418.795 405.182 417.739 405.182C416.966 405.182 416.29 405.307 415.71 405.557C415.136 405.807 414.688 406.151 414.364 406.588C414.045 407.026 413.886 407.523 413.886 408.08C413.886 408.545 413.997 408.946 414.219 409.281C414.446 409.611 414.736 409.886 415.088 410.108C415.44 410.324 415.81 410.503 416.196 410.645C416.582 410.781 416.938 410.892 417.261 410.977L419.034 411.455C419.489 411.574 419.994 411.739 420.551 411.949C421.114 412.159 421.651 412.446 422.162 412.81C422.679 413.168 423.105 413.628 423.44 414.19C423.776 414.753 423.943 415.443 423.943 416.261C423.943 417.205 423.696 418.057 423.202 418.818C422.713 419.58 421.997 420.185 421.054 420.634C420.116 421.082 418.977 421.307 417.636 421.307C416.386 421.307 415.304 421.105 414.389 420.702C413.48 420.298 412.764 419.736 412.241 419.014C411.724 418.293 411.432 417.455 411.364 416.5H413.545C413.602 417.159 413.824 417.705 414.21 418.136C414.602 418.562 415.097 418.881 415.693 419.091C416.295 419.295 416.943 419.398 417.636 419.398C418.443 419.398 419.168 419.267 419.81 419.006C420.452 418.739 420.96 418.369 421.335 417.898C421.71 417.42 421.898 416.864 421.898 416.227C421.898 415.648 421.736 415.176 421.412 414.812C421.088 414.449 420.662 414.153 420.134 413.926C419.605 413.699 419.034 413.5 418.42 413.33L416.273 412.716C414.909 412.324 413.83 411.764 413.034 411.037C412.239 410.31 411.841 409.358 411.841 408.182C411.841 407.205 412.105 406.352 412.634 405.625C413.168 404.892 413.884 404.324 414.781 403.92C415.685 403.511 416.693 403.307 417.807 403.307C418.932 403.307 419.932 403.509 420.807 403.912C421.682 404.31 422.375 404.855 422.886 405.548C423.403 406.241 423.676 407.028 423.705 407.909H421.659ZM432.634 421.273C431.373 421.273 430.285 420.994 429.37 420.438C428.461 419.875 427.759 419.091 427.265 418.085C426.776 417.074 426.532 415.898 426.532 414.557C426.532 413.216 426.776 412.034 427.265 411.011C427.759 409.983 428.447 409.182 429.327 408.608C430.214 408.028 431.248 407.739 432.43 407.739C433.112 407.739 433.785 407.852 434.45 408.08C435.114 408.307 435.719 408.676 436.265 409.188C436.81 409.693 437.245 410.364 437.569 411.199C437.893 412.034 438.055 413.062 438.055 414.284V415.136H427.964V413.398H436.009C436.009 412.659 435.862 412 435.566 411.42C435.276 410.841 434.862 410.384 434.322 410.048C433.788 409.713 433.157 409.545 432.43 409.545C431.629 409.545 430.935 409.744 430.35 410.142C429.771 410.534 429.325 411.045 429.012 411.676C428.7 412.307 428.543 412.983 428.543 413.705V414.864C428.543 415.852 428.714 416.69 429.055 417.378C429.401 418.06 429.881 418.58 430.495 418.938C431.109 419.29 431.822 419.466 432.634 419.466C433.163 419.466 433.64 419.392 434.066 419.244C434.498 419.091 434.87 418.864 435.183 418.562C435.495 418.256 435.737 417.875 435.907 417.42L437.85 417.966C437.646 418.625 437.302 419.205 436.819 419.705C436.336 420.199 435.739 420.585 435.029 420.864C434.319 421.136 433.521 421.273 432.634 421.273ZM441.114 421V407.909H443.058V409.886H443.194C443.433 409.239 443.864 408.713 444.489 408.31C445.114 407.906 445.819 407.705 446.603 407.705C446.751 407.705 446.935 407.707 447.157 407.713C447.379 407.719 447.546 407.727 447.66 407.739V409.784C447.592 409.767 447.435 409.741 447.191 409.707C446.952 409.668 446.7 409.648 446.433 409.648C445.796 409.648 445.228 409.781 444.728 410.048C444.234 410.31 443.842 410.673 443.552 411.139C443.268 411.599 443.126 412.125 443.126 412.716V421H441.114ZM461.147 407.909L456.306 421H454.261L449.42 407.909H451.602L455.215 418.341H455.352L458.965 407.909H461.147ZM463.802 421V407.909H465.813V421H463.802ZM464.825 405.727C464.433 405.727 464.094 405.594 463.81 405.327C463.532 405.06 463.393 404.739 463.393 404.364C463.393 403.989 463.532 403.668 463.81 403.401C464.094 403.134 464.433 403 464.825 403C465.217 403 465.552 403.134 465.83 403.401C466.114 403.668 466.256 403.989 466.256 404.364C466.256 404.739 466.114 405.06 465.83 405.327C465.552 405.594 465.217 405.727 464.825 405.727ZM474.815 421.273C473.588 421.273 472.531 420.983 471.645 420.403C470.759 419.824 470.077 419.026 469.599 418.009C469.122 416.991 468.884 415.83 468.884 414.523C468.884 413.193 469.128 412.02 469.616 411.003C470.111 409.98 470.798 409.182 471.679 408.608C472.565 408.028 473.599 407.739 474.781 407.739C475.702 407.739 476.531 407.909 477.27 408.25C478.009 408.591 478.614 409.068 479.085 409.682C479.557 410.295 479.849 411.011 479.963 411.83H477.952C477.798 411.233 477.457 410.705 476.929 410.244C476.406 409.778 475.702 409.545 474.815 409.545C474.031 409.545 473.344 409.75 472.753 410.159C472.168 410.562 471.71 411.134 471.381 411.872C471.057 412.605 470.895 413.466 470.895 414.455C470.895 415.466 471.054 416.347 471.372 417.097C471.696 417.847 472.151 418.429 472.736 418.844C473.327 419.259 474.02 419.466 474.815 419.466C475.338 419.466 475.812 419.375 476.239 419.193C476.665 419.011 477.026 418.75 477.321 418.409C477.616 418.068 477.827 417.659 477.952 417.182H479.963C479.849 417.955 479.568 418.651 479.119 419.27C478.676 419.884 478.088 420.372 477.355 420.736C476.628 421.094 475.781 421.273 474.815 421.273ZM488.392 421.273C487.131 421.273 486.043 420.994 485.128 420.438C484.219 419.875 483.517 419.091 483.023 418.085C482.534 417.074 482.29 415.898 482.29 414.557C482.29 413.216 482.534 412.034 483.023 411.011C483.517 409.983 484.205 409.182 485.085 408.608C485.972 408.028 487.006 407.739 488.188 407.739C488.869 407.739 489.543 407.852 490.207 408.08C490.872 408.307 491.477 408.676 492.023 409.188C492.568 409.693 493.003 410.364 493.327 411.199C493.651 412.034 493.812 413.062 493.812 414.284V415.136H483.722V413.398H491.767C491.767 412.659 491.619 412 491.324 411.42C491.034 410.841 490.619 410.384 490.08 410.048C489.545 409.713 488.915 409.545 488.188 409.545C487.386 409.545 486.693 409.744 486.108 410.142C485.528 410.534 485.082 411.045 484.77 411.676C484.457 412.307 484.301 412.983 484.301 413.705V414.864C484.301 415.852 484.472 416.69 484.812 417.378C485.159 418.06 485.639 418.58 486.253 418.938C486.866 419.29 487.58 419.466 488.392 419.466C488.92 419.466 489.398 419.392 489.824 419.244C490.256 419.091 490.628 418.864 490.94 418.562C491.253 418.256 491.494 417.875 491.665 417.42L493.608 417.966C493.403 418.625 493.06 419.205 492.577 419.705C492.094 420.199 491.497 420.585 490.787 420.864C490.077 421.136 489.278 421.273 488.392 421.273Z" fill="black"/>
<path d="M684.159 328H682.045C681.92 327.392 681.702 326.858 681.389 326.398C681.082 325.938 680.707 325.551 680.264 325.239C679.827 324.92 679.341 324.682 678.807 324.523C678.273 324.364 677.716 324.284 677.136 324.284C676.08 324.284 675.122 324.551 674.264 325.085C673.412 325.619 672.733 326.406 672.227 327.446C671.727 328.486 671.477 329.761 671.477 331.273C671.477 332.784 671.727 334.06 672.227 335.099C672.733 336.139 673.412 336.926 674.264 337.46C675.122 337.994 676.08 338.261 677.136 338.261C677.716 338.261 678.273 338.182 678.807 338.023C679.341 337.864 679.827 337.628 680.264 337.315C680.707 336.997 681.082 336.608 681.389 336.148C681.702 335.682 681.92 335.148 682.045 334.545H684.159C684 335.437 683.71 336.236 683.29 336.94C682.869 337.645 682.347 338.244 681.722 338.739C681.097 339.227 680.395 339.599 679.616 339.855C678.844 340.111 678.017 340.239 677.136 340.239C675.648 340.239 674.324 339.875 673.165 339.148C672.006 338.42 671.094 337.386 670.429 336.045C669.764 334.705 669.432 333.114 669.432 331.273C669.432 329.432 669.764 327.841 670.429 326.5C671.094 325.159 672.006 324.125 673.165 323.398C674.324 322.67 675.648 322.307 677.136 322.307C678.017 322.307 678.844 322.435 679.616 322.69C680.395 322.946 681.097 323.321 681.722 323.815C682.347 324.304 682.869 324.901 683.29 325.605C683.71 326.304 684 327.102 684.159 328ZM689.313 322.545V340H687.302V322.545H689.313ZM692.997 340V326.909H695.009V340H692.997ZM694.02 324.727C693.628 324.727 693.29 324.594 693.006 324.327C692.727 324.06 692.588 323.739 692.588 323.364C692.588 322.989 692.727 322.668 693.006 322.401C693.29 322.134 693.628 322 694.02 322C694.412 322 694.747 322.134 695.026 322.401C695.31 322.668 695.452 322.989 695.452 323.364C695.452 323.739 695.31 324.06 695.026 324.327C694.747 324.594 694.412 324.727 694.02 324.727ZM704.181 340.273C702.92 340.273 701.832 339.994 700.917 339.438C700.008 338.875 699.306 338.091 698.812 337.085C698.323 336.074 698.079 334.898 698.079 333.557C698.079 332.216 698.323 331.034 698.812 330.011C699.306 328.983 699.994 328.182 700.874 327.608C701.761 327.028 702.795 326.739 703.977 326.739C704.658 326.739 705.332 326.852 705.996 327.08C706.661 327.307 707.266 327.676 707.812 328.188C708.357 328.693 708.792 329.364 709.116 330.199C709.44 331.034 709.602 332.062 709.602 333.284V334.136H699.511V332.398H707.556C707.556 331.659 707.408 331 707.113 330.42C706.823 329.841 706.408 329.384 705.869 329.048C705.335 328.713 704.704 328.545 703.977 328.545C703.175 328.545 702.482 328.744 701.897 329.142C701.317 329.534 700.871 330.045 700.559 330.676C700.246 331.307 700.09 331.983 700.09 332.705V333.864C700.09 334.852 700.261 335.69 700.602 336.378C700.948 337.06 701.428 337.58 702.042 337.938C702.656 338.29 703.369 338.466 704.181 338.466C704.71 338.466 705.187 338.392 705.613 338.244C706.045 338.091 706.417 337.864 706.729 337.562C707.042 337.256 707.283 336.875 707.454 336.42L709.397 336.966C709.192 337.625 708.849 338.205 708.366 338.705C707.883 339.199 707.286 339.585 706.576 339.864C705.866 340.136 705.067 340.273 704.181 340.273ZM714.673 332.125V340H712.661V326.909H714.604V328.955H714.775C715.082 328.29 715.548 327.756 716.173 327.352C716.798 326.943 717.604 326.739 718.593 326.739C719.479 326.739 720.255 326.92 720.92 327.284C721.585 327.642 722.102 328.188 722.471 328.92C722.84 329.648 723.025 330.568 723.025 331.682V340H721.013V331.818C721.013 330.79 720.746 329.989 720.212 329.415C719.678 328.835 718.945 328.545 718.013 328.545C717.371 328.545 716.798 328.685 716.292 328.963C715.792 329.241 715.397 329.648 715.107 330.182C714.817 330.716 714.673 331.364 714.673 332.125ZM732.393 326.909V328.614H725.609V326.909H732.393ZM727.587 323.773H729.598V336.25C729.598 336.818 729.68 337.244 729.845 337.528C730.016 337.807 730.232 337.994 730.493 338.091C730.76 338.182 731.041 338.227 731.337 338.227C731.558 338.227 731.74 338.216 731.882 338.193C732.024 338.165 732.138 338.142 732.223 338.125L732.632 339.932C732.496 339.983 732.305 340.034 732.061 340.085C731.817 340.142 731.507 340.17 731.132 340.17C730.564 340.17 730.007 340.048 729.462 339.804C728.922 339.56 728.473 339.188 728.115 338.688C727.763 338.188 727.587 337.557 727.587 336.795V323.773Z" fill="black"/>
<path d="M453 41L442.05 37.3354L444.351 48.6508L453 41ZM335.199 65.9799L444.38 43.7737L443.981 41.8138L334.801 64.0201L335.199 65.9799Z" fill="black"/>
<path d="M630 332L618.589 333.765L625.822 342.765L630 332ZM523.626 418.779L623.611 338.418L622.359 336.859L522.374 417.221L523.626 418.779Z" fill="black"/>
<path d="M382 413L372.586 406.314L371.503 417.81L382 413ZM243.906 400.996L372.946 413.152L373.133 411.16L244.094 399.004L243.906 400.996Z" fill="black"/>
<path d="M86 228L85.5036 239.536L95.7425 234.198L86 228ZM147.887 344.538L91.0475 235.518L89.274 236.443L146.113 345.462L147.887 344.538Z" fill="black"/>
<path d="M86 146L97.4641 144.619L90.5359 135.381L86 146ZM193.4 64.2L92.6 139.8L93.8 141.4L194.6 65.8L193.4 64.2Z" fill="black"/>
</svg>
